<svg width="244" height="77" viewBox="0 0 244 77" fill="none" xmlns="http://www.w3.org/2000/svg">
<path d="M222.4 23.9473H227.661V35.3905H237.798V23.9473H243.059V52.3249H237.798V40.4209H227.661V52.3249H222.4V23.9473Z" fill="white"/>
<path d="M201.6 23.9473H208.627C210.547 23.9473 212.058 24.0625 213.158 24.2929C214.285 24.4977 215.27 24.8689 216.115 25.4065C217.267 26.1489 218.15 27.1473 218.765 28.4017C219.405 29.6561 219.725 31.0897 219.725 32.7025C219.725 34.3921 219.366 35.9281 218.65 37.3105C217.958 38.6673 216.998 39.6913 215.77 40.3825C215.386 40.5873 214.976 40.7665 214.541 40.9201C214.106 41.0737 213.606 41.2017 213.043 41.3041C212.48 41.3809 211.827 41.4449 211.085 41.4961C210.368 41.5217 209.523 41.5345 208.55 41.5345H206.861V52.3249H201.6V23.9473ZM208.397 36.5041C209.062 36.5041 209.741 36.4785 210.432 36.4273C211.149 36.3761 211.802 36.2353 212.39 36.0049C212.979 35.7489 213.466 35.3777 213.85 34.8913C214.234 34.3793 214.426 33.6881 214.426 32.8177C214.426 31.9217 214.208 31.1537 213.773 30.5137C213.338 29.8737 212.736 29.4513 211.968 29.2465C211.533 29.1441 211.072 29.0801 210.586 29.0545C210.099 29.0033 209.446 28.9777 208.627 28.9777H206.861V36.5041H208.397Z" fill="white"/>
<path d="M185.172 41.8417L175.841 23.9473H181.524L187.822 37.0033L194.081 23.9473H199.764L190.433 41.8417V52.3249H185.172V41.8417Z" fill="white"/>
<path d="M163.165 23.9473H168.426V47.2945H177.104V52.3249H163.165V23.9473Z" fill="white"/>
<path d="M131.031 24.05C132.145 24.05 133.604 25.97 133.604 26.6228C133.604 27.314 132.951 26.8148 132.068 26.8148C129.034 26.8148 124.35 28.8884 121.047 30.5012C119.319 32.8052 117.246 35.7236 115.402 38.6036C117.898 37.3364 120.74 35.9924 122.084 35.9924C123.505 35.9924 124.695 37.7972 124.695 38.3732C124.695 38.9492 124.35 38.5268 123.735 38.5268C121.623 38.5268 115.825 41.522 112.753 43.1732C111.409 45.746 110.526 48.05 110.526 49.586C110.526 50.3924 110.91 51.1988 112.254 51.1988C114.826 51.1988 124.849 47.09 127.038 44.9012C127.537 44.402 129.342 46.706 128.842 47.1668C128.382 47.666 120.049 53.3492 113.367 53.3492C111.332 53.3492 107.876 50.6612 107.876 47.6276C107.876 43.3268 112.522 35.762 116.516 30.3476C116.478 29.9252 116.478 29.5796 116.478 29.3492C116.478 29.1956 117.054 28.85 117.975 28.3892C120.01 25.778 121.623 24.05 121.93 24.05C123.313 24.05 124.503 25.0484 124.734 25.6628C127.345 24.7796 129.841 24.05 131.031 24.05Z" fill="#FF3F42"/>
<path d="M110.526 49.586C110.526 48.05 111.409 45.746 112.753 43.1732C115.825 41.522 121.623 38.5268 123.735 38.5268L123.954 38.5438C124.431 38.617 124.695 38.8768 124.695 38.3732C124.693 37.8319 123.648 36.213 122.348 36.0125L122.084 35.9924C120.74 35.9924 117.898 37.3364 115.402 38.6036C117.246 35.7236 119.319 32.8052 121.047 30.5012C124.35 28.8884 129.034 26.8148 132.068 26.8148L132.388 26.8344C133.003 26.9083 133.456 27.1441 133.573 26.8281L133.604 26.6228C133.603 26.0102 132.322 24.2861 131.245 24.0719L131.031 24.05C129.841 24.05 127.345 24.7796 124.734 25.6628C124.503 25.0484 123.313 24.05 121.93 24.05C121.62 24.0547 120.008 25.7816 117.975 28.3892C117.054 28.85 116.478 29.1956 116.478 29.3492L116.516 30.3476C112.522 35.762 107.876 43.3268 107.876 47.6276L107.917 48.1906C108.277 50.7995 111.05 53.0325 112.97 53.3188L113.367 53.3492C120.049 53.3492 128.382 47.666 128.842 47.1668C129.341 46.706 127.538 44.4063 127.038 44.9012C124.849 47.09 114.826 51.1988 112.254 51.1988L112.254 50.2375C112.732 50.2373 113.712 50.0277 115.054 49.6063C116.355 49.1976 117.891 48.6258 119.42 47.9844C120.948 47.343 122.457 46.6372 123.71 45.9625C124.993 45.2723 125.918 44.6609 126.357 44.2219C126.694 43.8847 127.123 43.8376 127.438 43.8906C127.722 43.9383 127.961 44.067 128.129 44.1781C128.476 44.4074 128.806 44.7478 129.067 45.0781C129.33 45.4115 129.584 45.8119 129.735 46.2C129.81 46.3901 129.882 46.6327 129.888 46.8937C129.894 47.1426 129.832 47.5089 129.542 47.8125L129.548 47.8188C129.538 47.8291 129.524 47.836 129.513 47.8469C129.506 47.854 129.502 47.8648 129.495 47.8719L129.488 47.8656C129.341 48.008 129.108 48.1907 128.876 48.3563C128.575 48.5709 128.172 48.8444 127.685 49.1531C126.711 49.7713 125.387 50.5451 123.867 51.3031C120.855 52.804 116.936 54.3094 113.367 54.3094C112.007 54.3091 110.41 53.4616 109.201 52.325C107.972 51.1699 106.917 49.5046 106.917 47.6281C106.917 45.2173 108.187 42.064 109.851 38.9531C111.482 35.9039 113.58 32.7382 115.535 30.0656C115.519 29.7654 115.517 29.5191 115.517 29.35C115.517 29.0444 115.651 28.8245 115.717 28.7313C115.792 28.623 115.879 28.5407 115.942 28.4844C116.069 28.3701 116.224 28.2639 116.37 28.1719C116.627 28.0096 116.965 27.825 117.351 27.6281C118.326 26.3842 119.208 25.3394 119.895 24.5906C120.252 24.2019 120.57 23.8794 120.829 23.6469C120.957 23.5323 121.09 23.4217 121.22 23.3344C121.284 23.291 121.366 23.2398 121.46 23.1969C121.539 23.1609 121.71 23.0909 121.929 23.0906C122.847 23.0906 123.671 23.4184 124.288 23.8219C124.59 24.0188 124.877 24.2629 125.117 24.5281C126.192 24.1733 127.236 23.8447 128.167 23.5969C129.266 23.3041 130.299 23.0906 131.032 23.0906C131.572 23.0909 132.057 23.314 132.426 23.5531C132.809 23.8011 133.159 24.1246 133.451 24.45C133.744 24.7767 134.003 25.1343 134.195 25.4719C134.36 25.7624 134.563 26.1922 134.563 26.6219C134.563 26.8986 134.503 27.4182 134.023 27.7406C133.62 28.0112 133.174 27.9481 133.032 27.9281C132.868 27.9049 132.606 27.846 132.498 27.825C132.339 27.7942 132.199 27.775 132.067 27.775C130.727 27.7753 128.929 28.2413 126.988 28.9531C125.152 29.6265 123.275 30.4846 121.679 31.2594C120.578 32.7322 119.35 34.4456 118.132 36.2281C118.361 36.1271 118.586 36.0294 118.807 35.9375C119.42 35.6831 120.012 35.4589 120.551 35.3C121.077 35.145 121.613 35.0312 122.085 35.0312C123.193 35.0318 124.083 35.7176 124.632 36.3219C124.922 36.6404 125.16 36.9847 125.332 37.3063C125.482 37.5868 125.654 37.9813 125.654 38.3719C125.654 38.483 125.646 38.6248 125.61 38.7719C125.574 38.9198 125.494 39.1376 125.304 39.325C124.881 39.741 124.35 39.6267 124.251 39.6063C124.168 39.5891 124.088 39.5667 124.042 39.5531C123.984 39.5364 123.945 39.5231 123.904 39.5125C123.829 39.4932 123.778 39.4875 123.735 39.4875C123.379 39.4875 122.751 39.6252 121.873 39.9281C121.025 40.2208 120.036 40.6319 119.001 41.1031C117.048 41.9924 114.983 43.0684 113.47 43.8781C112.872 45.0419 112.382 46.1276 112.038 47.0906C111.664 48.1389 111.485 48.9803 111.485 49.5875C111.486 49.8538 111.55 49.9964 111.607 50.0625C111.643 50.1033 111.781 50.2375 112.254 50.2375L112.254 51.1988L111.795 51.1625C110.959 51.0211 110.624 50.4829 110.545 49.8875L110.526 49.586Z" fill="#FF3F42"/>
<path d="M107.904 52.0434C108.71 52.0434 107.174 55.845 103.603 55.845C98.6112 55.845 94.7328 49.2786 92.9664 45.3618C92.0448 47.3202 91.5072 48.933 91.5072 49.8162C91.5072 50.9298 89.28 48.8946 89.28 48.0114C89.28 43.941 100.147 25.893 102.413 25.893C104.909 25.893 105.485 27.2754 105.062 27.7362C101.76 31.0386 98.0736 36.2226 95.3856 40.8306C101.914 39.4866 109.478 32.4594 109.478 27.8514C109.478 24.0882 107.597 23.013 104.832 23.013C99.5328 23.013 89.2032 30.4626 89.2032 36.8754C89.2032 38.4114 90.6624 37.9506 90.6624 38.565C90.6624 39.1794 86.4 38.2962 86.4 35.0706C86.4 30.0018 94.7328 20.325 103.526 20.325C106.675 20.325 112.051 24.741 112.051 28.6194C112.051 36.6834 101.376 43.0578 95.0016 43.365C96.8832 47.3202 99.9936 54.2706 105.216 54.2706C107.52 54.2706 107.136 52.0434 107.904 52.0434Z" fill="#FF3F42"/>
<path d="M89.3062 48.1906C89.5525 49.1382 91.5072 50.8597 91.5072 49.8162C91.5072 48.933 92.0448 47.3202 92.9664 45.3618C94.7328 49.2786 98.6112 55.845 103.603 55.845C107.174 55.845 108.71 52.0434 107.904 52.0434C107.136 52.0434 107.52 54.2706 105.216 54.2706L105.216 53.3094C105.628 53.3094 105.839 53.2137 105.953 53.1344C106.076 53.0483 106.179 52.9185 106.284 52.7156C106.338 52.6121 106.385 52.5021 106.441 52.3719C106.49 52.2557 106.557 52.0939 106.631 51.95C106.756 51.7084 107.117 51.0848 107.903 51.0844L108.097 51.1C108.29 51.1318 108.486 51.212 108.656 51.3594C108.872 51.5458 108.976 51.7766 109.025 51.9562C109.115 52.2892 109.064 52.6236 109.006 52.8625C108.881 53.3784 108.582 53.9738 108.156 54.5281C107.295 55.6503 105.76 56.8063 103.603 56.8063C100.677 56.8062 98.2151 54.8918 96.3438 52.6938C95.0061 51.1224 93.8907 49.3088 93.0312 47.675C92.9495 47.8922 92.8677 48.0976 92.8031 48.2938C92.5626 49.0248 92.4689 49.5305 92.4687 49.8156C92.4687 50.0793 92.4044 50.5259 92.0156 50.8406C91.6231 51.1578 91.1767 51.116 90.9437 51.0625C90.4939 50.9589 90.0648 50.6486 89.7656 50.3906C89.4321 50.103 89.0984 49.7425 88.8406 49.375C88.7113 49.1907 88.5899 48.9859 88.4969 48.775C88.4086 48.5748 88.319 48.3081 88.3187 48.0125C88.3187 47.3369 88.5361 46.4822 88.8437 45.5812C89.1601 44.6551 89.6087 43.5837 90.1437 42.4344C91.2152 40.133 92.66 37.4647 94.1719 34.9344C95.6831 32.4052 97.2743 29.9873 98.6406 28.1938C99.3211 27.3005 99.9657 26.5394 100.528 25.9906C100.808 25.7174 101.092 25.4743 101.369 25.2938C101.619 25.1307 101.987 24.9345 102.412 24.9344L102.925 24.95C104.078 25.0335 104.95 25.4037 105.509 25.9625C106.075 26.528 106.492 27.5958 105.769 28.3844L105.741 28.4156C103.012 31.1445 99.9873 35.2253 97.5062 39.1844C99.8659 38.2494 102.259 36.6784 104.228 34.8594C105.531 33.6555 106.619 32.3709 107.375 31.1344C108.139 29.8842 108.519 28.7559 108.519 27.85C108.519 26.1151 108.085 25.2185 107.547 24.7313C106.99 24.2276 106.117 23.9719 104.831 23.9719C103.704 23.9721 102.211 24.3773 100.559 25.1469C98.9242 25.9089 97.2051 26.9969 95.6406 28.2812C94.0744 29.5671 92.6892 31.0302 91.7031 32.5312C90.7123 34.0396 90.1626 35.5241 90.1625 36.875C90.1625 37.1004 90.2141 37.1442 90.2 37.125C90.2083 37.132 90.2363 37.1518 90.3062 37.1813C90.3639 37.2055 90.4227 37.2257 90.5187 37.2594C90.598 37.2872 90.7292 37.3346 90.8562 37.3969C90.9835 37.4594 91.1826 37.5725 91.3469 37.775C91.5301 38.0015 91.6219 38.2776 91.6219 38.5656C91.6217 38.9228 91.4503 39.2105 91.2344 39.3937C91.0461 39.5534 90.8421 39.6232 90.7062 39.6562C90.4309 39.7232 90.1348 39.7137 89.8844 39.6844C89.36 39.6229 88.7176 39.4327 88.0937 39.1125C86.8535 38.4756 85.4412 37.1822 85.4406 35.0719C85.4406 33.5704 86.0446 31.8435 87.0031 30.1531C87.9721 28.4445 89.3487 26.6872 91 25.1031C94.2823 21.9544 98.7902 19.3661 103.525 19.3656C104.516 19.3656 105.595 19.7074 106.616 20.2188C107.649 20.7366 108.691 21.4609 109.619 22.3094C111.43 23.9656 113.012 26.2783 113.013 28.6187C113.013 33.084 110.072 36.9444 106.5 39.6656C103.391 42.0343 99.6285 43.6718 96.45 44.1719C97.3028 45.9517 98.3357 48.0004 99.625 49.7281C101.234 51.8843 103.069 53.3092 105.216 53.3094L105.216 54.2706L104.731 54.25C99.8004 53.8375 96.8243 47.1964 95.0016 43.365C101.376 43.0578 112.051 36.6834 112.051 28.6194C112.051 24.741 106.675 20.325 103.526 20.325C94.7328 20.325 86.4 30.0018 86.4 35.0706L86.4125 35.3656C86.654 38.2525 90.4056 39.1051 90.65 38.6188L90.6624 38.565C90.6624 37.9506 89.2032 38.4114 89.2032 36.8754C89.2032 30.4626 99.5328 23.013 104.832 23.013C107.597 23.013 109.478 24.0882 109.478 27.8514C109.478 32.4594 101.914 39.4866 95.3856 40.8306C97.7375 36.7988 100.855 32.3269 103.809 29.0594L105.062 27.7362C105.485 27.2754 104.909 25.893 102.413 25.893C100.147 25.893 89.28 43.941 89.28 48.0114L89.3062 48.1906Z" fill="#FF3F42"/>
<path d="M32.64 0L38.41 26.87L65.28 32.64L38.4113 38.4113L32.64 65.28L26.87 38.41L0 32.64L26.87 26.87L32.64 0Z" fill="#FF3F42"/>
<path d="M142.912 37.848H161.459C161.459 40.024 161.088 42.0336 160.346 43.8768C159.603 45.6944 158.579 47.2688 157.274 48.6C155.968 49.9312 154.406 50.968 152.589 51.7104C150.771 52.4529 148.787 52.824 146.637 52.824C144.461 52.824 142.426 52.4529 140.531 51.7104C138.662 50.9424 137.037 49.9056 135.654 48.6C134.272 47.2688 133.184 45.7072 132.39 43.9152C131.597 42.0976 131.2 40.1521 131.2 38.0784C131.2 36.0304 131.584 34.1232 132.352 32.3568C133.146 30.5648 134.208 29.016 135.539 27.7104C136.896 26.3792 138.483 25.3424 140.301 24.6C142.118 23.832 144.064 23.448 146.138 23.448C147.699 23.448 149.21 23.6656 150.669 24.1008C152.128 24.536 153.472 25.1504 154.701 25.944C155.93 26.7376 157.005 27.672 157.926 28.7472C158.848 29.8224 159.539 31 160 32.28H153.818C152.922 31.0512 151.808 30.1168 150.477 29.4768C149.171 28.8368 147.686 28.5168 146.022 28.5168C144.64 28.5168 143.36 28.76 142.182 29.2464C141.03 29.7328 140.032 30.4112 139.187 31.2816C138.342 32.1264 137.677 33.1376 137.19 34.3152C136.73 35.4928 136.499 36.7728 136.499 38.1552C136.499 39.512 136.742 40.7792 137.229 41.9568C137.741 43.1344 138.432 44.1585 139.302 45.0289C140.198 45.8736 141.248 46.5392 142.451 47.0256C143.654 47.512 144.947 47.7552 146.33 47.7552C148.198 47.7552 149.862 47.32 151.322 46.4496C152.781 45.5792 153.894 44.3504 154.662 42.7632H142.912V37.848Z" fill="white"/>
<path d="M76.8 44.16L49.9313 49.9313L44.16 76.8L38.535 50.6138L40.6688 40.6688L50.6138 38.535L76.8 44.16Z" fill="white"/>
<path d="M26.025 47.2725L11.52 44.16L24.7463 41.3175L26.025 47.2725Z" fill="white"/>
<path d="M47.2725 26.025L41.3175 24.7463L44.16 11.52L47.2725 26.025Z" fill="white"/>
</svg>
